<svg xmlns="http://www.w3.org/2000/svg" width="250" height="67" viewBox="0 0 250 67">
  <g id="Logo" transform="translate(-124 -181)">
    <text id="RealSc_res" data-name="RealSc  res" transform="translate(124 181)" fill="#fff" font-size="50" font-family="SegoeUI-Bold, Segoe UI" font-weight="700"><tspan x="0" y="54">Real</tspan><tspan y="54" xml:space="preserve" fill="#ffb509">Sc  res</tspan></text>
    <path id="futbol-solid" d="M35.8,21.9A13.9,13.9,0,1,1,21.9,8,13.9,13.9,0,0,1,35.8,21.9Zm-2.69,0v-.016l-1.461,1.275L28.136,19.88l.922-4.728,1.923.172a11.233,11.233,0,0,0-5.645-4.1l.765,1.79-4.2,2.327-4.2-2.327.765-1.79a11.235,11.235,0,0,0-5.645,4.1l1.937-.172.908,4.728-3.513,3.279-1.461-1.275V21.9a11.126,11.126,0,0,0,2.156,6.613l.432-1.9,4.772.586,2.035,4.362-1.676,1a11.312,11.312,0,0,0,6.982,0l-1.676-1L25.75,27.2l4.772-.586.432,1.9A11.126,11.126,0,0,0,33.11,21.9ZM19.2,25.8l-1.676-5.118L21.9,17.513l4.372,3.168L24.611,25.8Z" transform="translate(267.8 201.6)" fill="#ffb509"/>
  </g>
</svg>
